<svg xmlns="http://www.w3.org/2000/svg" xmlns:xlink="http://www.w3.org/1999/xlink" width="1319" height="1125" contentScriptType="application/ecmascript" contentStyleType="text/css" preserveAspectRatio="none" style="width:1319px;height:1125px" version="1.1" viewBox="0 0 1319 1125" zoomAndPan="magnify"><defs><filter id="f1cz4pzkwc5fal" width="300%" height="300%" x="-1" y="-1"><feGaussianBlur result="blurOut" stdDeviation="2"/><feColorMatrix in="blurOut" result="blurOut2" type="matrix" values="0 0 0 0 0 0 0 0 0 0 0 0 0 0 0 0 0 0 .4 0"/><feOffset dx="4" dy="4" in="blurOut2" result="blurOut3"/><feBlend in="SourceGraphic" in2="blurOut3" mode="normal"/></filter></defs><g><text x="532.25" y="22.995" fill="#000" font-family="sans-serif" font-size="14" font-weight="bold" lengthAdjust="spacingAndGlyphs" textLength="257">&quot;Messages - Sequence Diagram&quot;</text><rect width="903" height="117.531" x="13" y="85.594" fill="#FFF" filter="url(#f1cz4pzkwc5fal)" style="stroke:#000;stroke-width:2"/><rect width="990" height="117.531" x="13" y="245.125" fill="#FFF" filter="url(#f1cz4pzkwc5fal)" style="stroke:#000;stroke-width:2"/><rect width="1295.5" height="260.063" x="13" y="404.656" fill="#FFF" filter="url(#f1cz4pzkwc5fal)" style="stroke:#000;stroke-width:2"/><rect width="990" height="201.797" x="13" y="706.719" fill="#FFF" filter="url(#f1cz4pzkwc5fal)" style="stroke:#000;stroke-width:2"/><rect width="610.5" height="117.531" x="392.5" y="950.516" fill="#FFF" filter="url(#f1cz4pzkwc5fal)" style="stroke:#000;stroke-width:2"/><line style="stroke:#a80036;stroke-width:1" x1="51" x2="51" y1="68.594" y2="210.125"/><line style="stroke:#a80036;stroke-width:1;stroke-dasharray:1,4" x1="51" x2="51" y1="210.125" y2="238.125"/><line style="stroke:#a80036;stroke-width:1" x1="51" x2="51" y1="238.125" y2="369.656"/><line style="stroke:#a80036;stroke-width:1;stroke-dasharray:1,4" x1="51" x2="51" y1="369.656" y2="397.656"/><line style="stroke:#a80036;stroke-width:1" x1="51" x2="51" y1="397.656" y2="671.719"/><line style="stroke:#a80036;stroke-width:1;stroke-dasharray:1,4" x1="51" x2="51" y1="671.719" y2="699.719"/><line style="stroke:#a80036;stroke-width:1" x1="51" x2="51" y1="699.719" y2="915.516"/><line style="stroke:#a80036;stroke-width:1;stroke-dasharray:1,4" x1="51" x2="51" y1="915.516" y2="943.516"/><line style="stroke:#a80036;stroke-width:1" x1="51" x2="51" y1="943.516" y2="1085.047"/><line style="stroke:#a80036;stroke-width:1" x1="426.5" x2="426.5" y1="68.594" y2="210.125"/><line style="stroke:#a80036;stroke-width:1;stroke-dasharray:1,4" x1="426.5" x2="426.5" y1="210.125" y2="238.125"/><line style="stroke:#a80036;stroke-width:1" x1="426.5" x2="426.5" y1="238.125" y2="369.656"/><line style="stroke:#a80036;stroke-width:1;stroke-dasharray:1,4" x1="426.5" x2="426.5" y1="369.656" y2="397.656"/><line style="stroke:#a80036;stroke-width:1" x1="426.5" x2="426.5" y1="397.656" y2="671.719"/><line style="stroke:#a80036;stroke-width:1;stroke-dasharray:1,4" x1="426.5" x2="426.5" y1="671.719" y2="699.719"/><line style="stroke:#a80036;stroke-width:1" x1="426.5" x2="426.5" y1="699.719" y2="915.516"/><line style="stroke:#a80036;stroke-width:1;stroke-dasharray:1,4" x1="426.5" x2="426.5" y1="915.516" y2="943.516"/><line style="stroke:#a80036;stroke-width:1" x1="426.5" x2="426.5" y1="943.516" y2="1085.047"/><line style="stroke:#a80036;stroke-width:1" x1="885" x2="885" y1="68.594" y2="210.125"/><line style="stroke:#a80036;stroke-width:1;stroke-dasharray:1,4" x1="885" x2="885" y1="210.125" y2="238.125"/><line style="stroke:#a80036;stroke-width:1" x1="885" x2="885" y1="238.125" y2="369.656"/><line style="stroke:#a80036;stroke-width:1;stroke-dasharray:1,4" x1="885" x2="885" y1="369.656" y2="397.656"/><line style="stroke:#a80036;stroke-width:1" x1="885" x2="885" y1="397.656" y2="671.719"/><line style="stroke:#a80036;stroke-width:1;stroke-dasharray:1,4" x1="885" x2="885" y1="671.719" y2="699.719"/><line style="stroke:#a80036;stroke-width:1" x1="885" x2="885" y1="699.719" y2="915.516"/><line style="stroke:#a80036;stroke-width:1;stroke-dasharray:1,4" x1="885" x2="885" y1="915.516" y2="943.516"/><line style="stroke:#a80036;stroke-width:1" x1="885" x2="885" y1="943.516" y2="1085.047"/><line style="stroke:#a80036;stroke-width:1" x1="954" x2="954" y1="68.594" y2="210.125"/><line style="stroke:#a80036;stroke-width:1;stroke-dasharray:1,4" x1="954" x2="954" y1="210.125" y2="238.125"/><line style="stroke:#a80036;stroke-width:1" x1="954" x2="954" y1="238.125" y2="369.656"/><line style="stroke:#a80036;stroke-width:1;stroke-dasharray:1,4" x1="954" x2="954" y1="369.656" y2="397.656"/><line style="stroke:#a80036;stroke-width:1" x1="954" x2="954" y1="397.656" y2="671.719"/><line style="stroke:#a80036;stroke-width:1;stroke-dasharray:1,4" x1="954" x2="954" y1="671.719" y2="699.719"/><line style="stroke:#a80036;stroke-width:1" x1="954" x2="954" y1="699.719" y2="915.516"/><line style="stroke:#a80036;stroke-width:1;stroke-dasharray:1,4" x1="954" x2="954" y1="915.516" y2="943.516"/><line style="stroke:#a80036;stroke-width:1" x1="954" x2="954" y1="943.516" y2="1085.047"/><line style="stroke:#a80036;stroke-width:1" x1="1264.5" x2="1264.5" y1="68.594" y2="210.125"/><line style="stroke:#a80036;stroke-width:1;stroke-dasharray:1,4" x1="1264.5" x2="1264.5" y1="210.125" y2="238.125"/><line style="stroke:#a80036;stroke-width:1" x1="1264.5" x2="1264.5" y1="238.125" y2="369.656"/><line style="stroke:#a80036;stroke-width:1;stroke-dasharray:1,4" x1="1264.5" x2="1264.5" y1="369.656" y2="397.656"/><line style="stroke:#a80036;stroke-width:1" x1="1264.5" x2="1264.5" y1="397.656" y2="671.719"/><line style="stroke:#a80036;stroke-width:1;stroke-dasharray:1,4" x1="1264.5" x2="1264.5" y1="671.719" y2="699.719"/><line style="stroke:#a80036;stroke-width:1" x1="1264.5" x2="1264.5" y1="699.719" y2="915.516"/><line style="stroke:#a80036;stroke-width:1;stroke-dasharray:1,4" x1="1264.5" x2="1264.5" y1="915.516" y2="943.516"/><line style="stroke:#a80036;stroke-width:1" x1="1264.5" x2="1264.5" y1="943.516" y2="1085.047"/><rect width="53" height="30.297" x="23" y="33.297" fill="#FEFECE" filter="url(#f1cz4pzkwc5fal)" style="stroke:#a80036;stroke-width:1.5"/><text x="30" y="53.292" fill="#000" font-family="sans-serif" font-size="14" lengthAdjust="spacingAndGlyphs" textLength="39">Client</text><rect width="53" height="30.297" x="23" y="1084.047" fill="#FEFECE" filter="url(#f1cz4pzkwc5fal)" style="stroke:#a80036;stroke-width:1.5"/><text x="30" y="1104.042" fill="#000" font-family="sans-serif" font-size="14" lengthAdjust="spacingAndGlyphs" textLength="39">Client</text><rect width="44" height="30.297" x="402.5" y="33.297" fill="#FEFECE" filter="url(#f1cz4pzkwc5fal)" style="stroke:#a80036;stroke-width:1.5"/><text x="409.5" y="53.292" fill="#000" font-family="sans-serif" font-size="14" lengthAdjust="spacingAndGlyphs" textLength="30">MPE</text><rect width="44" height="30.297" x="402.5" y="1084.047" fill="#FEFECE" filter="url(#f1cz4pzkwc5fal)" style="stroke:#a80036;stroke-width:1.5"/><text x="409.5" y="1104.042" fill="#000" font-family="sans-serif" font-size="14" lengthAdjust="spacingAndGlyphs" textLength="30">MPE</text><rect width="37" height="30.297" x="865" y="33.297" fill="#FEFECE" filter="url(#f1cz4pzkwc5fal)" style="stroke:#a80036;stroke-width:1.5"/><text x="872" y="53.292" fill="#000" font-family="sans-serif" font-size="14" lengthAdjust="spacingAndGlyphs" textLength="23">AGIX</text><rect width="37" height="30.297" x="865" y="1084.047" fill="#FEFECE" filter="url(#f1cz4pzkwc5fal)" style="stroke:#a80036;stroke-width:1.5"/><text x="872" y="1104.042" fill="#000" font-family="sans-serif" font-size="14" lengthAdjust="spacingAndGlyphs" textLength="23">AGIX</text><rect width="73" height="30.297" x="916" y="33.297" fill="#FEFECE" filter="url(#f1cz4pzkwc5fal)" style="stroke:#a80036;stroke-width:1.5"/><text x="923" y="53.292" fill="#000" font-family="sans-serif" font-size="14" lengthAdjust="spacingAndGlyphs" textLength="59">Daemon</text><rect width="73" height="30.297" x="916" y="1084.047" fill="#FEFECE" filter="url(#f1cz4pzkwc5fal)" style="stroke:#a80036;stroke-width:1.5"/><text x="923" y="1104.042" fill="#000" font-family="sans-serif" font-size="14" lengthAdjust="spacingAndGlyphs" textLength="59">Daemon</text><rect width="64" height="30.297" x="1230.5" y="33.297" fill="#FEFECE" filter="url(#f1cz4pzkwc5fal)" style="stroke:#a80036;stroke-width:1.5"/><text x="1237.5" y="53.292" fill="#000" font-family="sans-serif" font-size="14" lengthAdjust="spacingAndGlyphs" textLength="50">Service</text><rect width="64" height="30.297" x="1230.5" y="1084.047" fill="#FEFECE" filter="url(#f1cz4pzkwc5fal)" style="stroke:#a80036;stroke-width:1.5"/><text x="1237.5" y="1104.042" fill="#000" font-family="sans-serif" font-size="14" lengthAdjust="spacingAndGlyphs" textLength="50">Service</text><path fill="#EEE" d="M13,85.5938 L114,85.5938 L114,92.5938 L104,102.5938 L13,102.5938 L13,85.5938" style="stroke:#000;stroke-width:1"/><rect width="903" height="117.531" x="13" fill="none" style="stroke:#000;stroke-width:2" y="85.594"/><text x="28" y="98.661" fill="#000" font-family="sans-serif" font-size="13" font-weight="bold" lengthAdjust="spacingAndGlyphs" textLength="56">deposit</text><polygon fill="red" points="414.5 119.859 424.5 123.859 414.5 127.859 418.5 123.859" style="stroke:red;stroke-width:1"/><line style="stroke:red;stroke-width:1" x1="51.5" x2="420.5" y1="123.859" y2="123.859"/><text x="58.5" y="118.793" fill="#000" font-family="sans-serif" font-size="13" lengthAdjust="spacingAndGlyphs" textLength="91">deposit(value)</text><polygon fill="green" points="873.5 148.992 883.5 152.992 873.5 156.992 877.5 152.992" style="stroke:green;stroke-width:1"/><line style="stroke:green;stroke-width:1" x1="426.5" x2="879.5" y1="152.992" y2="152.992"/><text x="433.5" y="147.926" fill="#000" font-family="sans-serif" font-size="13" lengthAdjust="spacingAndGlyphs" textLength="207">move_tokens(client, MPE, value)</text><line style="stroke:gray;stroke-width:1" x1="426.5" x2="468.5" y1="182.125" y2="182.125"/><line style="stroke:gray;stroke-width:1" x1="468.5" x2="468.5" y1="182.125" y2="195.125"/><line style="stroke:gray;stroke-width:1" x1="427.5" x2="468.5" y1="195.125" y2="195.125"/><polygon fill="gray" points="437.5 191.125 427.5 195.125 437.5 199.125 433.5 195.125" style="stroke:gray;stroke-width:1"/><text x="433.5" y="177.059" fill="#000" font-family="sans-serif" font-size="13" lengthAdjust="spacingAndGlyphs" textLength="165">balances[client] += value</text><path fill="#EEE" d="M13,245.125 L157,245.125 L157,252.125 L147,262.125 L13,262.125 L13,245.125" style="stroke:#000;stroke-width:1"/><rect width="990" height="117.531" x="13" fill="none" style="stroke:#000;stroke-width:2" y="245.125"/><text x="28" y="258.192" fill="#000" font-family="sans-serif" font-size="13" font-weight="bold" lengthAdjust="spacingAndGlyphs" textLength="99">open channel</text><polygon fill="red" points="414.5 279.391 424.5 283.391 414.5 287.391 418.5 283.391" style="stroke:red;stroke-width:1"/><line style="stroke:red;stroke-width:1" x1="51.5" x2="420.5" y1="283.391" y2="283.391"/><text x="58.5" y="278.325" fill="#000" font-family="sans-serif" font-size="13" lengthAdjust="spacingAndGlyphs" textLength="351">open_channel(service, value, expiration, replica_group)</text><polygon fill="red" points="942.5 308.523 952.5 312.523 942.5 316.523 946.5 312.523" style="stroke:red;stroke-width:1"/><line style="stroke:red;stroke-width:1" x1="426.5" x2="948.5" y1="312.523" y2="312.523"/><text x="433.5" y="307.457" fill="#000" font-family="sans-serif" font-size="13" lengthAdjust="spacingAndGlyphs" textLength="192">event_channel_open(channel)</text><line style="stroke:gray;stroke-width:1" x1="51.5" x2="93.5" y1="341.656" y2="341.656"/><line style="stroke:gray;stroke-width:1" x1="93.5" x2="93.5" y1="341.656" y2="354.656"/><line style="stroke:gray;stroke-width:1" x1="52.5" x2="93.5" y1="354.656" y2="354.656"/><polygon fill="gray" points="62.5 350.656 52.5 354.656 62.5 358.656 58.5 354.656" style="stroke:gray;stroke-width:1"/><text x="58.5" y="336.59" fill="#000" font-family="sans-serif" font-size="13" lengthAdjust="spacingAndGlyphs" textLength="133">sum[channel_id] = 0</text><path fill="#EEE" d="M13,404.6563 L192,404.6563 L192,411.6563 L182,421.6563 L13,421.6563 L13,404.6563" style="stroke:#000;stroke-width:1"/><rect width="1295.5" height="260.063" x="13" fill="none" style="stroke:#000;stroke-width:2" y="404.656"/><text x="28" y="417.723" fill="#000" font-family="sans-serif" font-size="13" font-weight="bold" lengthAdjust="spacingAndGlyphs" textLength="134">request to service</text><line style="stroke:gray;stroke-width:1" x1="51.5" x2="93.5" y1="442.922" y2="442.922"/><line style="stroke:gray;stroke-width:1" x1="93.5" x2="93.5" y1="442.922" y2="455.922"/><line style="stroke:gray;stroke-width:1" x1="52.5" x2="93.5" y1="455.922" y2="455.922"/><polygon fill="gray" points="62.5 451.922 52.5 455.922 62.5 459.922 58.5 455.922" style="stroke:gray;stroke-width:1"/><text x="58.5" y="437.856" fill="#000" font-family="sans-serif" font-size="13" lengthAdjust="spacingAndGlyphs" textLength="167">sum[channel_id] += price</text><line style="stroke:gray;stroke-width:1" x1="51.5" x2="93.5" y1="485.055" y2="485.055"/><line style="stroke:gray;stroke-width:1" x1="93.5" x2="93.5" y1="485.055" y2="498.055"/><line style="stroke:gray;stroke-width:1" x1="52.5" x2="93.5" y1="498.055" y2="498.055"/><polygon fill="gray" points="62.5 494.055 52.5 498.055 62.5 502.055 58.5 498.055" style="stroke:gray;stroke-width:1"/><text x="58.5" y="479.989" fill="#000" font-family="sans-serif" font-size="13" lengthAdjust="spacingAndGlyphs" textLength="358">payment = sign_payment(channel_id, sum[channel_id])</text><polygon fill="red" points="942.5 523.188 952.5 527.188 942.5 531.188 946.5 527.188" style="stroke:red;stroke-width:1"/><line style="stroke:red;stroke-width:1" x1="51.5" x2="948.5" y1="527.188" y2="527.188"/><text x="58.5" y="522.122" fill="#000" font-family="sans-serif" font-size="13" lengthAdjust="spacingAndGlyphs" textLength="153">request(data, payment)</text><line style="stroke:gray;stroke-width:1" x1="954.5" x2="996.5" y1="556.32" y2="556.32"/><line style="stroke:gray;stroke-width:1" x1="996.5" x2="996.5" y1="556.32" y2="569.32"/><line style="stroke:gray;stroke-width:1" x1="955.5" x2="996.5" y1="569.32" y2="569.32"/><polygon fill="gray" points="965.5 565.32 955.5 569.32 965.5 573.32 961.5 569.32" style="stroke:gray;stroke-width:1"/><text x="961.5" y="551.254" fill="#000" font-family="sans-serif" font-size="13" lengthAdjust="spacingAndGlyphs" textLength="296">check_payment(last_channel_state, payment)</text><polygon fill="green" points="1252.5 594.453 1262.5 598.453 1252.5 602.453 1256.5 598.453" style="stroke:green;stroke-width:1"/><line style="stroke:green;stroke-width:1" x1="954.5" x2="1258.5" y1="598.453" y2="598.453"/><text x="961.5" y="593.387" fill="#000" font-family="sans-serif" font-size="13" lengthAdjust="spacingAndGlyphs" textLength="88">request(data)</text><polygon fill="green" points="965.5 623.586 955.5 627.586 965.5 631.586 961.5 627.586" style="stroke:green;stroke-width:1"/><line style="stroke:green;stroke-width:1" x1="959.5" x2="1263.5" y1="627.586" y2="627.586"/><text x="971.5" y="622.52" fill="#000" font-family="sans-serif" font-size="13" lengthAdjust="spacingAndGlyphs" textLength="105">response(result)</text><polygon fill="#A80036" points="62.5 652.719 52.5 656.719 62.5 660.719 58.5 656.719" style="stroke:#a80036;stroke-width:1"/><line style="stroke:#a80036;stroke-width:1" x1="56.5" x2="953.5" y1="656.719" y2="656.719"/><text x="68.5" y="651.653" fill="#000" font-family="sans-serif" font-size="13" lengthAdjust="spacingAndGlyphs" textLength="105">response(result)</text><path fill="#EEE" d="M13,706.7188 L258,706.7188 L258,713.7188 L248,723.7188 L13,723.7188 L13,706.7188" style="stroke:#000;stroke-width:1"/><rect width="990" height="201.797" x="13" fill="none" style="stroke:#000;stroke-width:2" y="706.719"/><text x="28" y="719.786" fill="#000" font-family="sans-serif" font-size="13" font-weight="bold" lengthAdjust="spacingAndGlyphs" textLength="200">contract partial withdrawal</text><polygon fill="red" points="437.5 740.984 427.5 744.984 437.5 748.984 433.5 744.984" style="stroke:red;stroke-width:1"/><line style="stroke:red;stroke-width:1" x1="431.5" x2="953.5" y1="744.984" y2="744.984"/><text x="443.5" y="739.918" fill="#000" font-family="sans-serif" font-size="13" lengthAdjust="spacingAndGlyphs" textLength="196">channel_claim(payment, false)</text><line style="stroke:gray;stroke-width:1" x1="426.5" x2="468.5" y1="774.117" y2="774.117"/><line style="stroke:gray;stroke-width:1" x1="468.5" x2="468.5" y1="774.117" y2="787.117"/><line style="stroke:gray;stroke-width:1" x1="427.5" x2="468.5" y1="787.117" y2="787.117"/><polygon fill="gray" points="437.5 783.117 427.5 787.117 437.5 791.117 433.5 787.117" style="stroke:gray;stroke-width:1"/><text x="433.5" y="769.051" fill="#000" font-family="sans-serif" font-size="13" lengthAdjust="spacingAndGlyphs" textLength="220">balances[client] -= payment.value</text><line style="stroke:gray;stroke-width:1" x1="426.5" x2="468.5" y1="816.25" y2="816.25"/><line style="stroke:gray;stroke-width:1" x1="468.5" x2="468.5" y1="816.25" y2="829.25"/><line style="stroke:gray;stroke-width:1" x1="427.5" x2="468.5" y1="829.25" y2="829.25"/><polygon fill="gray" points="437.5 825.25 427.5 829.25 437.5 833.25 433.5 829.25" style="stroke:gray;stroke-width:1"/><text x="433.5" y="811.184" fill="#000" font-family="sans-serif" font-size="13" lengthAdjust="spacingAndGlyphs" textLength="237">balances[service] += payment.value</text><line style="stroke:gray;stroke-width:1" x1="426.5" x2="468.5" y1="858.383" y2="858.383"/><line style="stroke:gray;stroke-width:1" x1="468.5" x2="468.5" y1="858.383" y2="871.383"/><line style="stroke:gray;stroke-width:1" x1="427.5" x2="468.5" y1="871.383" y2="871.383"/><polygon fill="gray" points="437.5 867.383 427.5 871.383 437.5 875.383 433.5 871.383" style="stroke:gray;stroke-width:1"/><text x="433.5" y="853.317" fill="#000" font-family="sans-serif" font-size="13" lengthAdjust="spacingAndGlyphs" textLength="445">newChannel(client, service, value - payment.value, expiration, replica)</text><polygon fill="red" points="62.5 896.516 52.5 900.516 62.5 904.516 58.5 900.516" style="stroke:red;stroke-width:1"/><line style="stroke:red;stroke-width:1" x1="56.5" x2="425.5" y1="900.516" y2="900.516"/><text x="68.5" y="895.45" fill="#000" font-family="sans-serif" font-size="13" lengthAdjust="spacingAndGlyphs" textLength="195">event_channel_open(contract)</text><path fill="#EEE" d="M392.5,950.5156 L518.5,950.5156 L518.5,957.5156 L508.5,967.5156 L392.5,967.5156 L392.5,950.5156" style="stroke:#000;stroke-width:1"/><rect width="610.5" height="117.531" x="392.5" fill="none" style="stroke:#000;stroke-width:2" y="950.516"/><text x="407.5" y="963.582" fill="#000" font-family="sans-serif" font-size="13" font-weight="bold" lengthAdjust="spacingAndGlyphs" textLength="81">withdrawal</text><polygon fill="red" points="437.5 984.781 427.5 988.781 437.5 992.781 433.5 988.781" style="stroke:red;stroke-width:1"/><line style="stroke:red;stroke-width:1" x1="431.5" x2="953.5" y1="988.781" y2="988.781"/><text x="443.5" y="983.715" fill="#000" font-family="sans-serif" font-size="13" lengthAdjust="spacingAndGlyphs" textLength="99">withdraw(value)</text><line style="stroke:gray;stroke-width:1" x1="426.5" x2="468.5" y1="1017.914" y2="1017.914"/><line style="stroke:gray;stroke-width:1" x1="468.5" x2="468.5" y1="1017.914" y2="1030.914"/><line style="stroke:gray;stroke-width:1" x1="427.5" x2="468.5" y1="1030.914" y2="1030.914"/><polygon fill="gray" points="437.5 1026.914 427.5 1030.914 437.5 1034.914 433.5 1030.914" style="stroke:gray;stroke-width:1"/><text x="433.5" y="1012.848" fill="#000" font-family="sans-serif" font-size="13" lengthAdjust="spacingAndGlyphs" textLength="170">balances[service] -= value</text><polygon fill="green" points="873.5 1056.047 883.5 1060.047 873.5 1064.047 877.5 1060.047" style="stroke:green;stroke-width:1"/><line style="stroke:green;stroke-width:1" x1="426.5" x2="879.5" y1="1060.047" y2="1060.047"/><text x="433.5" y="1054.981" fill="#000" font-family="sans-serif" font-size="13" lengthAdjust="spacingAndGlyphs" textLength="218">move_tokens(MPE, service, value)</text></g></svg>